<?xml version="1.0" encoding="UTF-8"?>
<svg viewBox="0 0 1267 122" version="1.1" xmlns="http://www.w3.org/2000/svg" xmlns:xlink="http://www.w3.org/1999/xlink">
    <g id="Page-2" stroke="none" stroke-width="1" fill="none" fillRule="evenodd">
        <g id="ブライアンベローソー" transform="translate(0.656, 0.472)" fill="currentColor" fillRule="nonzero">
            <path d="M109.952,21.12 C108.245333,15.4026667 105.514667,9.38666667 101.76,3.072 L113.152,0 C116.821333,5.80266667 119.68,11.8613333 121.728,18.176 L109.952,21.12 Z M94.848,24.96 C93.1413333,19.2426667 90.4106667,13.2266667 86.656,6.912 L98.048,3.968 C101.888,9.94133333 104.704,15.9573333 106.496,22.016 L94.848,24.96 Z M1.408,26.752 L104.448,26.752 L117.888,54.784 C111.573333,68.608 104.128,79.744 95.552,88.192 C86.976,96.64 76.7786667,103.253333 64.96,108.032 C53.1413333,112.810667 38.3146667,116.864 20.48,120.192 L17.536,114.944 C14.464,109.312 11.5626667,104.362667 8.832,100.096 C6.10133333,95.8293333 3.15733333,91.9466667 0,88.448 C22.1866667,86.8266667 39.4453333,83.4133333 51.776,78.208 C64.1066667,73.0026667 73.5573333,65.8773333 80.128,56.832 L61.312,56.96 C34.0906667,57.1306667 14.1226667,57.5146667 1.408,58.112 L1.408,26.752 Z M135.168,21.376 L234.112,21.376 L234.112,41.472 L135.168,41.472 L135.168,21.376 Z M231.808,45.952 L246.144,66.176 C240.768,77.0986667 234.005333,86.0586667 225.856,93.056 C217.706667,100.053333 207.338667,105.706667 194.752,110.016 C182.165333,114.325333 166.229333,117.845333 146.944,120.576 C145.237333,115.712 142.997333,110.506667 140.224,104.96 C137.450667,99.4133333 134.4,94.4213333 131.072,89.984 C168.789333,89.0453333 193.237333,83.1573333 204.416,72.32 C173.354667,72.32 148.693333,72.7466667 130.432,73.6 L130.432,45.952 L231.808,45.952 Z M376.832,34.432 C371.029333,42.112 365.290667,48.448 359.616,53.44 C353.941333,58.432 347.178667,62.9333333 339.328,66.944 L339.328,118.016 L303.872,118.016 L303.872,78.08 C292.010667,80.2133333 276.864,81.92 258.432,83.2 C257.749333,76.544 256.96,70.784 256.064,65.92 C255.168,61.056 253.610667,55.9786667 251.392,50.688 C264.874667,50.7733333 276.778667,50.3466667 287.104,49.408 C297.429333,48.4693333 305.92,46.7626667 312.576,44.288 C326.314667,39.0826667 336.981333,31.232 344.576,20.736 L376.832,34.432 Z M489.6,25.6 L504.448,48.768 C500.608,58.4106667 495.957333,67.0506667 490.496,74.688 C485.034667,82.3253333 478.592,89.4293333 471.168,96 C464.426667,89.1733333 458.581333,83.9253333 453.632,80.256 C451.84,84.9493333 449.621333,89.1093333 446.976,92.736 C444.330667,96.3626667 441.130667,99.6266667 437.376,102.528 C432.341333,106.453333 425.898667,109.781333 418.048,112.512 C410.197333,115.242667 401.408,117.162667 391.68,118.272 C389.802667,111.445333 387.968,105.621333 386.176,100.8 C384.384,95.9786667 381.952,91.1786667 378.88,86.4 C388.608,86.4853333 396.693333,85.888 403.136,84.608 C409.578667,83.328 414.165333,81.3653333 416.896,78.72 C419.285333,76.416 421.226667,73.4293333 422.72,69.76 C424.213333,66.0906667 425.429333,61.312 426.368,55.424 L459.52,55.424 C459.008,58.9226667 458.581333,61.568 458.24,63.36 C461.738667,60.544 464.725333,56.576 467.2,51.456 L382.848,51.456 L382.848,25.6 L489.6,25.6 Z M598.528,24.064 C603.648,25.856 608.704,27.4133333 613.696,28.736 C618.688,30.0586667 624.810667,31.5733333 632.064,33.28 C630.016,49.152 626.154667,62.0373333 620.48,71.936 C614.805333,81.8346667 607.018667,90.2826667 597.12,97.28 C588.245333,103.594667 577.877333,108.458667 566.016,111.872 C554.154667,115.285333 539.477333,117.802667 521.984,119.424 C520.106667,112.512 518.250667,106.688 516.416,101.952 C514.581333,97.216 511.872,92.3733333 508.288,87.424 C524.245333,87.424 537.450667,86.3786667 547.904,84.288 C558.357333,82.1973333 567.338667,78.7626667 574.848,73.984 C581.674667,69.632 586.965333,63.36 590.72,55.168 C594.474667,46.976 597.077333,36.608 598.528,24.064 Z M680.704,31.616 C683.605333,31.616 686.656,32.4053333 689.856,33.984 C693.056,35.5626667 697.045333,38.016 701.824,41.344 L708.224,45.952 C717.44,52.5226667 726.208,58.5173333 734.528,63.936 C742.848,69.3546667 752.512,75.008 763.52,80.896 C760.106667,85.6746667 757.098667,90.5173333 754.496,95.424 C751.893333,100.330667 749.013333,106.24 745.856,113.152 C718.976,91.8186667 699.264,76.6293333 686.72,67.584 C686.378667,67.328 685.909333,67.2 685.312,67.2 C684.288,67.2 683.136,67.6266667 681.856,68.48 C676.821333,72.32 671.68,76.6293333 666.432,81.408 C661.184,86.1866667 653.226667,93.7813333 642.56,104.192 C641.536,98.9013333 640.042667,93.5466667 638.08,88.128 C636.117333,82.7093333 633.6,76.416 630.528,69.248 C646.887325,56.1765783 657.820595,46.9109316 663.32781,41.45106 L663.740739,41.0385763 C663.941853,40.8360877 664.13494,40.6392289 664.32,40.448 C667.306667,37.376 670.122667,35.136 672.768,33.728 C675.413333,32.32 678.058667,31.616 680.704,31.616 Z M528.128,25.856 C538.88,28.8426667 548.48,31.744 556.928,34.56 C565.376,37.376 573.909333,40.576 582.528,44.16 L559.36,67.2 C548.778667,63.2746667 540.245333,60.3733333 533.76,58.496 C527.274667,56.6186667 518.229333,54.528 506.624,52.224 C510.634667,48.384 514.730667,43.8826667 518.912,38.72 C523.093333,33.5573333 526.165333,29.2693333 528.128,25.856 Z M725.632,25.984 C729.386667,33.2373333 732.245333,40.6613333 734.208,48.256 L722.304,51.84 C720.426667,44.5866667 717.610667,37.2053333 713.856,29.696 L725.632,25.984 Z M741.12,21.248 C744.96,28.3306667 747.861333,35.7546667 749.824,43.52 L737.792,47.104 C735.914667,39.8506667 733.098667,32.4693333 729.344,24.96 L741.12,21.248 Z M769.792,26.368 L881.152,26.368 L881.152,116.992 L847.872,116.992 L847.872,111.36 L803.072,111.36 L803.072,116.992 L769.792,116.992 L769.792,26.368 Z M803.072,85.248 L847.872,85.248 L847.872,52.352 L803.072,52.352 L803.072,85.248 Z M1009.536,86.4 L898.56,86.4 L898.56,56.448 L1009.536,56.448 L1009.536,86.4 Z M1057.536,76.8 C1052.07467,70.5706667 1046.4,64.4266667 1040.512,58.368 C1034.624,52.3093333 1027.49867,45.3546667 1019.136,37.504 L1027.456,34.176 C1037.01333,30.592 1044.52267,27.4773333 1049.984,24.832 C1056.55467,31.232 1064.14933,38.9973333 1072.768,48.128 L1083.52,59.392 L1057.536,76.8 Z M1042.688,118.912 C1040.21333,113.194667 1037.504,107.776 1034.56,102.656 C1031.616,97.536 1028.05333,92.288 1023.872,86.912 C1039.57333,86.912 1052.26667,85.824 1061.952,83.648 C1071.63733,81.472 1079.50933,78.1653333 1085.568,73.728 C1091.79733,69.2053333 1096.896,63.168 1100.864,55.616 C1104.832,48.064 1107.84,38.6986667 1109.888,27.52 L1143.936,31.104 C1139.15733,61.6533333 1127.85067,83.712 1110.016,97.28 C1102.08,103.253333 1092.672,107.968 1081.792,111.424 C1070.912,114.88 1057.87733,117.376 1042.688,118.912 Z M1265.536,86.4 L1154.56,86.4 L1154.56,56.448 L1265.536,56.448 L1265.536,86.4 Z" id="Combined-Shape"></path>
        </g>
    </g>
</svg>
