<svg xmlns="http://www.w3.org/2000/svg" xml:space="preserve" style="fill-rule:evenodd;clip-rule:evenodd;stroke-linejoin:round;stroke-miterlimit:2" viewBox="0 0 3559 3171">
  <path d="M0 348.34a2.5 2.5 0 0 1-4.42-.2l-52.5-95.19c-7.77-16.58-6.49-36.55 2.52-52.48L90.26-55.36c14.22-25.15 33.01-36.9 59.56-36.9 20.42 0 37.67 9.44 47.58 21.9 13.38 16.8 16.13 40.35 4.24 61.45C150.5 81.83 0 348.34 0 348.34m-140.75-246.82a1.68 1.68 0 0 1-2.92 0l-69.36-121.57c-17.66-30.88-2.87-69.57 39.84-69.57h63.23c41.15 0 56.35 38.2 38.76 69.09l-69.55 122.05Zm240.03-307.8c-15.3 0-31.67 4.2-44.45 12.66-7.96 5.26-17.53 17.51-25.02 28.61-.4.6-.91.93-1.42.95-.52.02-1.04-.26-1.48-.84-5.69-7.6-11.75-19.37-21.56-27.07-12.48-9.8-27.07-14.3-45.76-14.3 0 0-254.97.29-340.69 0-39.1-.14-59.8 39.6-41.72 71.54 94.1 166.3 285.1 501.9 378.94 665.18 8.97 15.6 24.21 24.3 42.23 24.3 15.26 0 31.53-7.48 41.09-24.1 93.75-163.06 283.01-498.88 378.2-665.18 18.29-31.96-.35-71.74-41.6-71.74H99.27Z" transform="matrix(4 0 0 4 1789.29 859.48)"/>
</svg>
