<svg xmlns="http://www.w3.org/2000/svg" viewBox="0 0 888 110">
  <path fill="#FFF" d="M185.37 16.48c-.86 18.86-3.74 35.41-8.64 49.66s-12.4 28.2-22.47 41.86a182.14 182.14 0 0 0-15.61-11 111.4 111.4 0 0 0-16.9-8.33c10.07-9.04 17.41-19.24 22.02-30.59 4.6-11.35 7-24.75 7.17-40.2l34.43-1.4Zm-74.11-1.4 14.84 23.16a121.82 121.82 0 0 1-13.95 25.92 127.51 127.51 0 0 1-19.33 21.31C86.08 78.65 80.24 73.4 75.3 69.73a53.33 53.33 0 0 1-6.66 12.48 48.45 48.45 0 0 1-9.6 9.79c-5.03 3.93-11.48 7.25-19.33 9.98a122.51 122.51 0 0 1-26.36 5.76 213.38 213.38 0 0 0-5.5-17.47 74.98 74.98 0 0 0-7.3-14.4c9.72.09 17.8-.51 24.25-1.79 6.44-1.28 11.03-3.24 13.76-5.89a25.6 25.6 0 0 0 5.83-8.96c1.49-3.67 2.7-8.45 3.64-14.33h33.16c-.52 3.5-.94 6.14-1.28 7.93 3.5-2.81 6.48-6.78 8.96-11.9H4.5V15.07h106.76Zm117.88-10.5a90.57 90.57 0 0 1 7.43 19.7l-6.91 2.31a1682.8 1682.8 0 0 1 13.82 34.18c3.58 9.21 7.47 20.1 11.65 32.64l-33.67 14.08a816.53 816.53 0 0 0-3.32-11.01 1233.53 1233.53 0 0 0-13.19-42.18 539.14 539.14 0 0 0-14.72-38.08l31.87-1.28a92.66 92.66 0 0 0-3.2-7.16l10.24-3.2ZM242.58.35a101.7 101.7 0 0 1 7.43 19.71l-10.37 3.33c-1.37-5.97-3.8-12.58-7.3-19.84l10.24-3.2Zm20.87 15.49H374.8v90.62h-33.28v-5.63h-44.8v5.63h-33.28V15.84Zm33.28 58.88h44.8v-32.9h-44.8v32.9Zm102.91 34.18a179.58 179.58 0 0 0-5.57-17.48 65.06 65.06 0 0 0-8.13-14.52c15.96 0 29.17-1.05 39.62-3.14 10.45-2.1 19.43-5.53 26.94-10.3 6.83-4.36 12.12-10.63 15.88-18.82 3.75-8.2 6.35-18.56 7.8-31.1a204.4 204.4 0 0 0 15.17 4.67c5 1.32 11.12 2.84 18.37 4.54-2.05 15.87-5.9 28.76-11.58 38.66-5.68 9.9-13.47 18.34-23.36 25.34-8.88 6.32-19.25 11.18-31.1 14.6-11.87 3.4-26.55 5.92-44.04 7.55Zm37.38-52.23a386.67 386.67 0 0 0-25.6-8.7c-6.49-1.88-15.53-3.97-27.14-6.27a145.3 145.3 0 0 0 12.29-13.5c4.18-5.17 7.25-9.46 9.21-12.87a597.86 597.86 0 0 1 28.8 8.7 378.08 378.08 0 0 1 25.6 9.6l-23.16 23.04Zm198.01 22.15c-6.82 11.69-11.9 21.84-15.23 30.46a643.16 643.16 0 0 1-38.4-19.58 175.74 175.74 0 0 1-44.8 19.2 228.22 228.22 0 0 0-9.86-14.6 211.32 211.32 0 0 0-12.67-15.36c18-2.13 33.35-6.08 46.02-11.84 12.67-5.76 23.23-13.46 31.68-23.1h-70.02V16.35l97.28-.51 12.16 26.88a167.03 167.03 0 0 1-25.34 28.8c9.9 3.75 19.62 6.19 29.18 7.3Zm129.54-35.84c-4.52 8.96-8.62 16.25-12.29 21.88l9.6 1.8a68.42 68.42 0 0 0-6.66 8.83 334.5 334.5 0 0 0-6.9 11.65c-.78 1.28-1.46 2.45-2.06 3.52a112 112 0 0 1-1.66 2.88c-6.83-2.22-11.86-3.89-15.1-5l-4.23 2.7c-8.19 4.69-18.05 8.4-29.57 11.13-11.52 2.73-25.3 4.82-41.34 6.27-2.39-6.91-4.5-12.5-6.34-16.77a87.71 87.71 0 0 0-8.25-14.46h12.54a134.65 134.65 0 0 0-7.17-13.12 57.4 57.4 0 0 0-8.57-10.56c9.21-4.52 16.45-10.46 21.7-17.8a60.16 60.16 0 0 0 10.3-25.21h32.38l-1.02 4.48h52.1l12.54 27.78Zm-104.32 34.3c14.33-.26 25.21-1.32 32.64-3.2a158.01 158.01 0 0 1-16.77-9.09l18.3-19.58c7.17 3.92 15.75 7.55 25.73 10.88 3.24-3.93 6.27-8.1 9.09-12.55h-40.32a106.3 106.3 0 0 1-13.25 19.33 89.82 89.82 0 0 1-15.42 14.21Zm226.94-1.4H776.22V45.91h110.97v29.95Z"/>
</svg>
