<svg xmlns="http://www.w3.org/2000/svg" viewBox="0 0 990 88">
  <path fill="#FFF" d="M.92 2h19.92c6.8 0 11.76 1.58 14.88 4.74 3.12 3.16 4.68 8.02 4.68 14.58v3.36c0 4.32-.7 7.84-2.1 10.56a12.31 12.31 0 0 1-6.42 5.88v.24c6.56 2.24 9.84 8.08 9.84 17.52v7.2c0 6.48-1.7 11.42-5.1 14.82-3.4 3.4-8.38 5.1-14.94 5.1H.92V2Zm18.36 34.2c2.64 0 4.62-.68 5.94-2.04 1.32-1.36 1.98-3.64 1.98-6.84v-4.68c0-3.04-.54-5.24-1.62-6.6C24.5 14.68 22.8 14 20.48 14h-6.36v22.2h5.16Zm2.4 37.8c2.32 0 4.04-.62 5.16-1.86 1.12-1.24 1.68-3.38 1.68-6.42V58.4c0-3.84-.66-6.5-1.98-7.98-1.32-1.48-3.5-2.22-6.54-2.22h-5.88V74h7.56ZM49.4 2h36v12H62.6v22.2h18.12v12H62.6V74h22.8v12h-36V2Zm62.76 0h19.44c6.56 0 11.48 1.76 14.76 5.28 3.28 3.52 4.92 8.68 4.92 15.48v8.28c0 6.8-1.64 11.96-4.92 15.48-3.28 3.52-8.2 5.28-14.76 5.28h-6.24V86h-13.2V2Zm19.44 37.8c2.16 0 3.78-.6 4.86-1.8 1.08-1.2 1.62-3.24 1.62-6.12v-9.96c0-2.88-.54-4.92-1.62-6.12-1.08-1.2-2.7-1.8-4.86-1.8h-6.24v25.8h6.24ZM158.48 2h19.56c6.8 0 11.76 1.58 14.88 4.74 3.12 3.16 4.68 8.02 4.68 14.58v5.16c0 8.72-2.88 14.24-8.64 16.56v.24a10.3 10.3 0 0 1 6.78 5.88c1.32 2.96 1.98 6.92 1.98 11.88V75.8c0 2.4.08 4.34.24 5.82a14.6 14.6 0 0 0 1.2 4.38h-13.44c-.48-1.36-.8-2.64-.96-3.84-.16-1.2-.24-3.36-.24-6.48V60.32c0-3.84-.62-6.52-1.86-8.04-1.24-1.52-3.38-2.28-6.42-2.28h-4.56v36h-13.2V2Zm18 36c2.64 0 4.62-.68 5.94-2.04 1.32-1.36 1.98-3.64 1.98-6.84v-6.48c0-3.04-.54-5.24-1.62-6.6-1.08-1.36-2.78-2.04-5.1-2.04h-6v24h4.8Zm49.44 49.2c-6.48 0-11.44-1.84-14.88-5.52-3.44-3.68-5.16-8.88-5.16-15.6V21.92c0-6.72 1.72-11.92 5.16-15.6 3.44-3.68 8.4-5.52 14.88-5.52s11.44 1.84 14.88 5.52c3.44 3.68 5.16 8.88 5.16 15.6v44.16c0 6.72-1.72 11.92-5.16 15.6-3.44 3.68-8.4 5.52-14.88 5.52Zm0-12c4.56 0 6.84-2.76 6.84-8.28V21.08c0-5.52-2.28-8.28-6.84-8.28-4.56 0-6.84 2.76-6.84 8.28v45.84c0 5.52 2.28 8.28 6.84 8.28Zm48.12 12c-6.4 0-11.28-1.82-14.64-5.46-3.36-3.64-5.04-8.86-5.04-15.66V2h13.2v65.04c0 2.88.58 4.96 1.74 6.24 1.16 1.28 2.82 1.92 4.98 1.92 2.16 0 3.82-.64 4.98-1.92 1.16-1.28 1.74-3.36 1.74-6.24V2h12.72v64.08c0 6.8-1.68 12.02-5.04 15.66-3.36 3.64-8.24 5.46-14.64 5.46ZM303.08 2h20.16c6.56 0 11.48 1.76 14.76 5.28 3.28 3.52 4.92 8.68 4.92 15.48v42.48c0 6.8-1.64 11.96-4.92 15.48-3.28 3.52-8.2 5.28-14.76 5.28h-20.16V2ZM323 74c2.16 0 3.82-.64 4.98-1.92 1.16-1.28 1.74-3.36 1.74-6.24V22.16c0-2.88-.58-4.96-1.74-6.24-1.16-1.28-2.82-1.92-4.98-1.92h-6.72v60H323Zm67.08 13.2c-6.48 0-11.44-1.84-14.88-5.52-3.44-3.68-5.16-8.88-5.16-15.6V21.92c0-6.72 1.72-11.92 5.16-15.6C378.64 2.64 383.6.8 390.08.8s11.44 1.84 14.88 5.52c3.44 3.68 5.16 8.88 5.16 15.6v44.16c0 6.72-1.72 11.92-5.16 15.6-3.44 3.68-8.4 5.52-14.88 5.52Zm0-12c4.56 0 6.84-2.76 6.84-8.28V21.08c0-5.52-2.28-8.28-6.84-8.28-4.56 0-6.84 2.76-6.84 8.28v45.84c0 5.52 2.28 8.28 6.84 8.28ZM419 2h34.92v12H432.2v23.4h17.04v12H432.2V86H419V2Zm72.6 48.24L475.64 2h14.04l9 30.84h.24l9-30.84h12.84L504.8 50.24V86h-13.2V50.24Zm54.24 36.96c-6.48 0-11.44-1.84-14.88-5.52-3.44-3.68-5.16-8.88-5.16-15.6V21.92c0-6.72 1.72-11.92 5.16-15.6C534.4 2.64 539.36.8 545.84.8s11.44 1.84 14.88 5.52c3.44 3.68 5.16 8.88 5.16 15.6v44.16c0 6.72-1.72 11.92-5.16 15.6-3.44 3.68-8.4 5.52-14.88 5.52Zm0-12c4.56 0 6.84-2.76 6.84-8.28V21.08c0-5.52-2.28-8.28-6.84-8.28-4.56 0-6.84 2.76-6.84 8.28v45.84c0 5.52 2.28 8.28 6.84 8.28Zm48.12 12c-6.4 0-11.28-1.82-14.64-5.46-3.36-3.64-5.04-8.86-5.04-15.66V2h13.2v65.04c0 2.88.58 4.96 1.74 6.24 1.16 1.28 2.82 1.92 4.98 1.92 2.16 0 3.82-.64 4.98-1.92 1.16-1.28 1.74-3.36 1.74-6.24V2h12.72v64.08c0 6.8-1.68 12.02-5.04 15.66-3.36 3.64-8.24 5.46-14.64 5.46ZM623 2h19.56c6.8 0 11.76 1.58 14.88 4.74 3.12 3.16 4.68 8.02 4.68 14.58v5.16c0 8.72-2.88 14.24-8.64 16.56v.24a10.3 10.3 0 0 1 6.78 5.88c1.32 2.96 1.98 6.92 1.98 11.88V75.8c0 2.4.08 4.34.24 5.82a14.6 14.6 0 0 0 1.2 4.38h-13.44c-.48-1.36-.8-2.64-.96-3.84-.16-1.2-.24-3.36-.24-6.48V60.32c0-3.84-.62-6.52-1.86-8.04-1.24-1.52-3.38-2.28-6.42-2.28h-4.56v36H623V2Zm18 36c2.64 0 4.62-.68 5.94-2.04 1.32-1.36 1.98-3.64 1.98-6.84v-6.48c0-3.04-.54-5.24-1.62-6.6-1.08-1.36-2.78-2.04-5.1-2.04h-6v24h4.8Zm49.56-36h13.2v34.2h14.16V2h13.2v84h-13.2V48.2h-14.16V86h-13.2V2Zm69.48 85.2c-6.48 0-11.44-1.84-14.88-5.52C741.72 78 740 72.8 740 66.08V21.92c0-6.72 1.72-11.92 5.16-15.6C748.6 2.64 753.56.8 760.04.8s11.44 1.84 14.88 5.52c3.44 3.68 5.16 8.88 5.16 15.6v44.16c0 6.72-1.72 11.92-5.16 15.6-3.44 3.68-8.4 5.52-14.88 5.52Zm0-12c4.56 0 6.84-2.76 6.84-8.28V21.08c0-5.52-2.28-8.28-6.84-8.28-4.56 0-6.84 2.76-6.84 8.28v45.84c0 5.52 2.28 8.28 6.84 8.28ZM788.96 2h19.92c6.8 0 11.76 1.58 14.88 4.74 3.12 3.16 4.68 8.02 4.68 14.58v3.36c0 4.32-.7 7.84-2.1 10.56a12.31 12.31 0 0 1-6.42 5.88v.24c6.56 2.24 9.84 8.08 9.84 17.52v7.2c0 6.48-1.7 11.42-5.1 14.82-3.4 3.4-8.38 5.1-14.94 5.1h-20.76V2Zm18.36 34.2c2.64 0 4.62-.68 5.94-2.04 1.32-1.36 1.98-3.64 1.98-6.84v-4.68c0-3.04-.54-5.24-1.62-6.6-1.08-1.36-2.78-2.04-5.1-2.04h-6.36v22.2h5.16Zm2.4 37.8c2.32 0 4.04-.62 5.16-1.86 1.12-1.24 1.68-3.38 1.68-6.42V58.4c0-3.84-.66-6.5-1.98-7.98-1.32-1.48-3.5-2.22-6.54-2.22h-5.88V74h7.56Zm27.72-72h19.92c6.8 0 11.76 1.58 14.88 4.74 3.12 3.16 4.68 8.02 4.68 14.58v3.36c0 4.32-.7 7.84-2.1 10.56a12.31 12.31 0 0 1-6.42 5.88v.24c6.56 2.24 9.84 8.08 9.84 17.52v7.2c0 6.48-1.7 11.42-5.1 14.82-3.4 3.4-8.38 5.1-14.94 5.1h-20.76V2Zm18.36 34.2c2.64 0 4.62-.68 5.94-2.04 1.32-1.36 1.98-3.64 1.98-6.84v-4.68c0-3.04-.54-5.24-1.62-6.6-1.08-1.36-2.78-2.04-5.1-2.04h-6.36v22.2h5.16Zm2.4 37.8c2.32 0 4.04-.62 5.16-1.86 1.12-1.24 1.68-3.38 1.68-6.42V58.4c0-3.84-.66-6.5-1.98-7.98-1.32-1.48-3.5-2.22-6.54-2.22h-5.88V74h7.56Zm27.72-72h13.2v84h-13.2V2Zm23.04 0h36v12h-22.8v22.2h18.12v12h-18.12V74h22.8v12h-36V2Zm60.72 85.2c-6.4 0-11.24-1.82-14.52-5.46-3.28-3.64-4.92-8.86-4.92-15.66v-4.8h12.48v5.76c0 5.44 2.28 8.16 6.84 8.16 2.24 0 3.94-.66 5.1-1.98 1.16-1.32 1.74-3.46 1.74-6.42 0-3.52-.8-6.62-2.4-9.3-1.6-2.68-4.56-5.9-8.88-9.66-5.44-4.8-9.24-9.14-11.4-13.02a26.55 26.55 0 0 1-3.24-13.14c0-6.64 1.68-11.78 5.04-15.42C958.88 2.62 963.76.8 970.16.8c6.32 0 11.1 1.82 14.34 5.46 3.24 3.64 4.86 8.86 4.86 15.66v3.48h-12.48v-4.32c0-2.88-.56-4.98-1.68-6.3-1.12-1.32-2.76-1.98-4.92-1.98-4.4 0-6.6 2.68-6.6 8.04 0 3.04.82 5.88 2.46 8.52 1.64 2.64 4.62 5.84 8.94 9.6 5.52 4.8 9.32 9.16 11.4 13.08s3.12 8.52 3.12 13.8c0 6.88-1.7 12.16-5.1 15.84-3.4 3.68-8.34 5.52-14.82 5.52Z"/>
</svg>
